# xmcd
#
# Track frame offsets:
#	150
#	15798
#	30139
#	53823
#	72376
#	98159
#	112389
#	125475
#	144181
#	161383
#	182764
#	197984
#	216631
#	227561
#	244571
#	260031
#	276383
#	288709
#	300885
#
# Disc length: 4282 seconds
#
# Revision: 1
# Processed by: cddbd v1.5.2PL0 Copyright (c) Steve Scherf et al.
# Submitted via: audiograbber 1.83.01
#
DISCID=1210b813
DTITLE=Johnny Cash - Memories - Live in New York, 9.9.1996
DYEAR=1996
DGENRE=Country
TTITLE0=Folsom Prison Blues
TTITLE1=Get Rhythm
TTITLE2=Sunday Morning Coming Down
TTITLE3=(Ghost)riders In The Sky
TTITLE4=Oh Bury Me Not
TTITLE5=I Never Picked Cotton
TTITLE6=Unchained
TTITLE7=Rowboat
TTITLE8=Rusty Cage
TTITLE9=Southern Accents
TTITLE10=Memories Are Made Of This
TTITLE11=Ring Of Fire
TTITLE12=I Walk The Line
TTITLE13=I´ve g Got Jesus In My Soul (Earl Poole Ball)
TTITLE14=Jackson (with June Carter Cash)
TTITLE15=If I Were A Carpenter (with June Carter Cash)
TTITLE16=Big River
TTITLE17=I Still Miss Someone
TTITLE18=Orange Blossom Special
EXTD=
EXTT0=
EXTT1=
EXTT2=
EXTT3=
EXTT4=
EXTT5=
EXTT6=
EXTT7=
EXTT8=
EXTT9=
EXTT10=
EXTT11=
EXTT12=
EXTT13=
EXTT14=
EXTT15=
EXTT16=
EXTT17=
EXTT18=
PLAYORDER=
